<?xml version="1.0" encoding="utf-8"?>
<!-- Generator: Adobe Illustrator 27.5.0, SVG Export Plug-In . SVG Version: 6.00 Build 0)  -->
<svg version="1.1" xmlns="http://www.w3.org/2000/svg" xmlns:xlink="http://www.w3.org/1999/xlink" x="0px" y="0px"
	 viewBox="0 0 500 500" style="enable-background:new 0 0 500 500;" xml:space="preserve">
<g id="BACKGROUND">
	<rect y="-0.364" style="fill:#FFFFFF;" width="500" height="500"/>
</g>
<g id="OBJECTS">
	<g style="opacity:0.73;">
		<g>
			<path style="fill:#E3E9FF;" d="M205.571,251.672H65.744c-6.369,0-11.58-5.211-11.58-11.58V100.265
				c0-6.369,5.211-11.58,11.58-11.58h139.827c6.369,0,11.58,5.211,11.58,11.58v139.827
				C217.151,246.461,211.94,251.672,205.571,251.672z"/>
			<path style="fill:#E3E9FF;" d="M281.815,114.012h-48.786c-2.222,0-4.041-1.818-4.041-4.041V61.185
				c0-2.222,1.818-4.041,4.041-4.041h48.786c2.222,0,4.04,1.818,4.04,4.041v48.786C285.856,112.194,284.038,114.012,281.815,114.012
				z"/>
			<path style="fill:#E3E9FF;" d="M125.923,321.626H77.136c-2.222,0-4.04-1.818-4.04-4.04v-48.786c0-2.222,1.818-4.04,4.04-4.04
				h48.786c2.222,0,4.041,1.818,4.041,4.04v48.786C129.963,319.808,128.145,321.626,125.923,321.626z"/>
			<path style="fill:#E3E9FF;" d="M406.808,427.565h-48.786c-2.222,0-4.04-1.818-4.04-4.04v-48.786c0-2.222,1.818-4.04,4.04-4.04
				h48.786c2.222,0,4.04,1.818,4.04,4.04v48.786C410.849,425.747,409.03,427.565,406.808,427.565z"/>
			<path style="fill:#E3E9FF;" d="M436.136,330.115H409.45c-1.216,0-2.21-0.995-2.21-2.21V301.22c0-1.215,0.994-2.21,2.21-2.21
				h26.685c1.215,0,2.21,0.995,2.21,2.21v26.685C438.346,329.121,437.351,330.115,436.136,330.115z"/>
			<path style="fill:#E3E9FF;" d="M150.759,427.565h-48.786c-2.222,0-4.04-1.818-4.04-4.04v-48.786c0-2.222,1.818-4.04,4.04-4.04
				h48.786c2.222,0,4.04,1.818,4.04,4.04v48.786C154.799,425.747,152.981,427.565,150.759,427.565z"/>
			<path style="fill:#FFC4C2;" d="M402.294,357.341h-12.852c-0.586,0-1.065-0.479-1.065-1.064v-12.852
				c0-0.585,0.479-1.064,1.065-1.064h12.852c0.585,0,1.064,0.479,1.064,1.064v12.852
				C403.358,356.862,402.879,357.341,402.294,357.341z"/>
			<path style="fill:#FFC4C2;" d="M207.832,78.188h-12.852c-0.585,0-1.064-0.479-1.064-1.064V64.272
				c0-0.585,0.479-1.064,1.064-1.064h12.852c0.585,0,1.064,0.479,1.064,1.064v12.852C208.896,77.71,208.417,78.188,207.832,78.188z"
				/>
			<path style="fill:#FFC4C2;" d="M444.772,114.912h-12.852c-0.585,0-1.064-0.479-1.064-1.064v-12.852
				c0-0.586,0.479-1.064,1.064-1.064h12.852c0.585,0,1.064,0.479,1.064,1.064v12.852
				C445.836,114.433,445.357,114.912,444.772,114.912z"/>
			<path style="fill:#FFC4C2;" d="M72.031,357.341H59.179c-0.585,0-1.064-0.479-1.064-1.064v-12.852
				c0-0.585,0.479-1.064,1.064-1.064h12.852c0.585,0,1.064,0.479,1.064,1.064v12.852C73.096,356.862,72.617,357.341,72.031,357.341z
				"/>
			<path style="fill:#E3E9FF;" d="M434.923,285.714h-131.77c-6.002,0-10.913-4.911-10.913-10.913v-131.77
				c0-6.002,4.911-10.913,10.913-10.913h131.77c6.002,0,10.913,4.911,10.913,10.913v131.77
				C445.836,280.803,440.925,285.714,434.923,285.714z"/>
		</g>
		<path style="fill:#FFC4C2;" d="M317.368,80.098c0,2.815-2.282,5.098-5.098,5.098s-5.098-2.282-5.098-5.098
			c0-2.815,2.282-5.098,5.098-5.098S317.368,77.282,317.368,80.098z"/>
		<path style="fill:#FFC4C2;" d="M65.568,261.402c0,2.816-2.282,5.098-5.098,5.098c-2.815,0-5.098-2.282-5.098-5.098
			c0-2.815,2.282-5.098,5.098-5.098C63.285,256.305,65.568,258.587,65.568,261.402z"/>
		<path style="fill:#E3E9FF;" d="M439.294,389.863c0,2.815-2.282,5.098-5.098,5.098s-5.098-2.282-5.098-5.098
			s2.282-5.098,5.098-5.098S439.294,387.048,439.294,389.863z"/>
		<circle style="fill:#FFC4C2;" cx="399.625" cy="102.48" r="2.549"/>
		<path style="fill:#FFC4C2;" d="M95.368,367.663c0,1.408-1.141,2.549-2.549,2.549s-2.549-1.141-2.549-2.549
			c0-1.408,1.141-2.549,2.549-2.549S95.368,366.255,95.368,367.663z"/>
		<path style="fill:#FFC4C2;" d="M441.843,354.174c0,1.408-1.141,2.549-2.549,2.549c-1.408,0-2.549-1.141-2.549-2.549
			c0-1.408,1.141-2.549,2.549-2.549C440.702,351.626,441.843,352.767,441.843,354.174z"/>
		<circle style="fill:#FFC4C2;" cx="348.166" cy="54.596" r="2.549"/>
		<path style="fill:#E3E9FF;" d="M360.317,95.206c0,1.408-1.141,2.549-2.549,2.549c-1.408,0-2.549-1.141-2.549-2.549
			s1.141-2.549,2.549-2.549C359.175,92.658,360.317,93.799,360.317,95.206z"/>
	</g>
	<g>
		<path style="fill:#7D88B8;" d="M386.985,433.308H191.641c-5.78,0-10.51-4.729-10.51-10.51v-293.99c0-5.78,4.729-10.51,10.51-10.51
			h195.344c5.78,0,10.51,4.729,10.51,10.51v293.99C397.495,428.579,392.766,433.308,386.985,433.308z"/>
		
			<rect x="150.219" y="186.455" transform="matrix(-1.836970e-16 1 -1 -1.836970e-16 574.3348 -13.0863)" style="opacity:0.31;fill:#BDC1D4;" width="286.983" height="188.338"/>
		
			<rect x="145.822" y="181.635" transform="matrix(-1.836970e-16 1 -1 -1.836970e-16 565.1172 -13.5096)" style="fill:#FFFFFF;" width="286.983" height="188.338"/>
		<path style="opacity:0.31;fill:#BDC1D4;" d="M335.717,118.075h-90.813c-1.748,1.388-2.873,3.528-2.873,5.934v17.309
			c0,1.455,0.417,2.81,1.128,3.964c1.334,2.166,3.72,3.614,6.45,3.614h81.419c4.186,0,7.578-3.393,7.578-7.578v-17.309
			c0-2.003-0.782-3.818-2.051-5.173C336.298,118.56,336.013,118.311,335.717,118.075z"/>
		<path style="fill:#CED3E7;" d="M336.296,178.509h-91.953c-5.127,0-9.321-4.195-9.321-9.321v0c0-5.127,4.195-9.321,9.321-9.321
			h91.953c5.127,0,9.321,4.195,9.321,9.321v0C345.617,174.315,341.422,178.509,336.296,178.509z"/>
		<g>
			<path style="fill:#C4C8DB;" d="M251.885,113.288c-3.951,0-7.155,3.203-7.155,7.155v13.844l20.999-20.999H251.885z"/>
			<path style="fill:#DFE3F2;" d="M265.73,113.288l-20.999,20.999v2.497c0,1.374,0.394,2.652,1.065,3.742l27.239-27.239H265.73z"/>
			<path style="fill:#DFE3F2;" d="M274.05,112.272l13.353-13.353C280.611,100.128,275.27,105.481,274.05,112.272z"/>
			<path style="fill:#CED3E7;" d="M306.754,113.288c-0.954-8.236-7.943-14.633-16.435-14.633h0c-0.996,0-1.969,0.095-2.916,0.264
				l-13.353,13.353c-0.06,0.337-0.126,0.672-0.166,1.016h-0.85l-27.239,27.239c1.259,2.045,3.512,3.412,6.089,3.412h24.636
				l30.651-30.651H306.754z M290.319,110.58c-2.104,0-3.81-1.706-3.81-3.81c0-2.104,1.706-3.81,3.81-3.81
				c2.104,0,3.81,1.706,3.81,3.81C294.129,108.874,292.423,110.58,290.319,110.58z"/>
			<path style="fill:#DFE3F2;" d="M328.753,113.288H310.9l-30.651,30.651h25.343l28.38-28.38
				C332.666,114.164,330.814,113.288,328.753,113.288z"/>
			<polygon style="fill:#CED3E7;" points="335.908,125.399 317.368,143.939 321.095,143.939 335.908,129.126 			"/>
			<path style="fill:#C4C8DB;" d="M321.095,143.939h7.658c3.951,0,7.155-3.203,7.155-7.155v-7.658L321.095,143.939z"/>
			<path style="fill:#CED3E7;" d="M335.908,120.442c0-1.891-0.739-3.605-1.936-4.884l-28.38,28.38h11.777l18.54-18.539V120.442z"/>
			<polygon style="fill:#C4C8DB;" points="307.173,113.288 276.522,143.939 280.249,143.939 310.9,113.288 			"/>
			<path style="opacity:0.69;fill:#BDC1D4;" d="M328.175,140.437h-76.327c-2.46,0-4.472-2.012-4.472-4.472l0,0
				c0-2.46,2.012-4.472,4.472-4.472h76.327c2.46,0,4.472,2.013,4.472,4.472l0,0C332.647,138.424,330.635,140.437,328.175,140.437z"
				/>
		</g>
		<g style="opacity:0.36;">
			<g>
				<path style="opacity:0.69;fill:#BDC1D4;" d="M328.474,135.93h-3.727h-11.777h-25.343h-3.727h-24.636
					c-2.578,0-4.83-1.368-6.09-3.412c-0.671-1.09-1.065-2.368-1.065-3.742v-2.497v-12.99h-0.225c-3.951,0-7.155,3.203-7.155,7.155
					v13.844v2.497c0,1.374,0.394,2.652,1.065,3.742c1.259,2.045,3.512,3.412,6.089,3.412h24.636h3.727h25.343h11.777h3.727h7.658
					c3.951,0,7.155-3.203,7.155-7.155v-0.855H328.474z"/>
			</g>
		</g>
		<g>
			<path style="fill:none;stroke:#324699;stroke-width:1.7516;stroke-miterlimit:10;" d="M242.867,333.972h-12.663
				c-5.338,0-9.706-4.368-9.706-9.706v-12.663c0-5.338,4.368-9.706,9.706-9.706h12.663c5.338,0,9.706,4.367,9.706,9.706v12.663
				C252.572,329.605,248.205,333.972,242.867,333.972z"/>
			<path style="fill:#CED3E7;" d="M362.433,307.435h-95.649c-1.523,0-2.768-1.246-2.768-2.769l0,0c0-1.523,1.246-2.768,2.768-2.768
				h95.649c1.523,0,2.768,1.246,2.768,2.768l0,0C365.202,306.189,363.956,307.435,362.433,307.435z"/>
			<path style="fill:#CED3E7;" d="M354.999,316.297h-88.215c-1.523,0-2.768-1.246-2.768-2.769l0,0c0-1.523,1.246-2.768,2.768-2.768
				h88.215c1.523,0,2.769,1.246,2.769,2.768l0,0C357.768,315.051,356.522,316.297,354.999,316.297z"/>
			<path style="fill:#CED3E7;" d="M362.433,325.158h-95.649c-1.523,0-2.768-1.246-2.768-2.769l0,0c0-1.523,1.246-2.769,2.768-2.769
				h95.649c1.523,0,2.768,1.246,2.768,2.769l0,0C365.202,323.912,363.956,325.158,362.433,325.158z"/>
			<path style="fill:#CED3E7;" d="M307.917,334.02h-41.132c-1.523,0-2.768-1.246-2.768-2.769l0,0c0-1.523,1.246-2.768,2.768-2.768
				h41.132c1.523,0,2.768,1.246,2.768,2.768l0,0C310.685,332.774,309.439,334.02,307.917,334.02z"/>
		</g>
		<g>
			<path style="fill:none;stroke:#324699;stroke-width:1.7516;stroke-miterlimit:10;" d="M242.867,386.249h-12.663
				c-5.338,0-9.706-4.368-9.706-9.706V363.88c0-5.338,4.368-9.706,9.706-9.706h12.663c5.338,0,9.706,4.368,9.706,9.706v12.663
				C252.572,381.881,248.205,386.249,242.867,386.249z"/>
			<path style="fill:#CED3E7;" d="M362.433,359.712h-95.649c-1.523,0-2.768-1.246-2.768-2.768l0,0c0-1.523,1.246-2.769,2.768-2.769
				h95.649c1.523,0,2.768,1.246,2.768,2.769l0,0C365.202,358.466,363.956,359.712,362.433,359.712z"/>
			<path style="fill:#CED3E7;" d="M354.999,368.573h-88.215c-1.523,0-2.768-1.246-2.768-2.768l0,0c0-1.523,1.246-2.769,2.768-2.769
				h88.215c1.523,0,2.769,1.246,2.769,2.769l0,0C357.768,367.327,356.522,368.573,354.999,368.573z"/>
			<path style="fill:#CED3E7;" d="M362.433,377.435h-95.649c-1.523,0-2.768-1.246-2.768-2.768l0,0c0-1.523,1.246-2.769,2.768-2.769
				h95.649c1.523,0,2.768,1.246,2.768,2.769l0,0C365.202,376.189,363.956,377.435,362.433,377.435z"/>
			<path style="fill:#CED3E7;" d="M307.917,386.296h-41.132c-1.523,0-2.768-1.246-2.768-2.769l0,0c0-1.523,1.246-2.769,2.768-2.769
				h41.132c1.523,0,2.768,1.246,2.768,2.769l0,0C310.685,385.05,309.439,386.296,307.917,386.296z"/>
		</g>
		<g>
			<path style="fill:none;stroke:#324699;stroke-width:1.7516;stroke-miterlimit:10;" d="M242.867,229.42h-12.663
				c-5.338,0-9.706-4.368-9.706-9.706v-12.663c0-5.338,4.368-9.706,9.706-9.706h12.663c5.338,0,9.706,4.367,9.706,9.706v12.663
				C252.572,225.052,248.205,229.42,242.867,229.42z"/>
			<path style="fill:#CED3E7;" d="M362.433,202.883h-95.649c-1.523,0-2.768-1.246-2.768-2.768l0,0c0-1.523,1.246-2.769,2.768-2.769
				h95.649c1.523,0,2.768,1.246,2.768,2.769l0,0C365.202,201.637,363.956,202.883,362.433,202.883z"/>
			<path style="fill:#CED3E7;" d="M354.999,211.744h-88.215c-1.523,0-2.768-1.246-2.768-2.768l0,0c0-1.523,1.246-2.769,2.768-2.769
				h88.215c1.523,0,2.769,1.246,2.769,2.769l0,0C357.768,210.498,356.522,211.744,354.999,211.744z"/>
			<path style="fill:#CED3E7;" d="M362.433,220.606h-95.649c-1.523,0-2.768-1.246-2.768-2.769l0,0c0-1.523,1.246-2.769,2.768-2.769
				h95.649c1.523,0,2.768,1.246,2.768,2.769l0,0C365.202,219.36,363.956,220.606,362.433,220.606z"/>
			<path style="fill:#CED3E7;" d="M307.917,229.467h-41.132c-1.523,0-2.768-1.246-2.768-2.769v0c0-1.523,1.246-2.769,2.768-2.769
				h41.132c1.523,0,2.768,1.246,2.768,2.769v0C310.685,228.221,309.439,229.467,307.917,229.467z"/>
			
				<polyline style="fill:none;stroke:#28B334;stroke-width:8.5355;stroke-linecap:round;stroke-linejoin:round;stroke-miterlimit:10;" points="
				222.751,205.833 233.194,216.276 255.846,193.624 			"/>
		</g>
		<g>
			<path style="fill:none;stroke:#324699;stroke-width:1.7516;stroke-miterlimit:10;" d="M242.867,281.696h-12.663
				c-5.338,0-9.706-4.367-9.706-9.706v-12.663c0-5.338,4.368-9.706,9.706-9.706h12.663c5.338,0,9.706,4.367,9.706,9.706v12.663
				C252.572,277.329,248.205,281.696,242.867,281.696z"/>
			<path style="fill:#CED3E7;" d="M362.433,255.159h-95.649c-1.523,0-2.768-1.246-2.768-2.769l0,0c0-1.523,1.246-2.768,2.768-2.768
				h95.649c1.523,0,2.768,1.246,2.768,2.768l0,0C365.202,253.913,363.956,255.159,362.433,255.159z"/>
			<path style="fill:#CED3E7;" d="M354.999,264.02h-88.215c-1.523,0-2.768-1.246-2.768-2.768l0,0c0-1.523,1.246-2.768,2.768-2.768
				h88.215c1.523,0,2.769,1.246,2.769,2.768l0,0C357.768,262.775,356.522,264.02,354.999,264.02z"/>
			<path style="fill:#CED3E7;" d="M362.433,272.882h-95.649c-1.523,0-2.768-1.246-2.768-2.768l0,0c0-1.523,1.246-2.768,2.768-2.768
				h95.649c1.523,0,2.768,1.246,2.768,2.768l0,0C365.202,271.636,363.956,272.882,362.433,272.882z"/>
			<path style="fill:#CED3E7;" d="M307.917,281.743h-41.132c-1.523,0-2.768-1.246-2.768-2.768l0,0c0-1.523,1.246-2.769,2.768-2.769
				h41.132c1.523,0,2.768,1.246,2.768,2.769l0,0C310.685,280.498,309.439,281.743,307.917,281.743z"/>
			
				<polyline style="fill:none;stroke:#28B334;stroke-width:8.5355;stroke-linecap:round;stroke-linejoin:round;stroke-miterlimit:10;" points="
				222.751,259.971 233.194,270.413 255.846,247.761 			"/>
		</g>
	</g>
	<g>
		<g>
			<path style="fill:#FFC4A6;" d="M111.978,428.86c1.175-0.058,2.311,0.093,3.381,0.404l1.023-1.889l3.948-7.29l-4.298,0.213
				l-7.798,0.386l-4.968,0.246l5.373,7.934l0.394,0.582C109.957,429.117,110.945,428.911,111.978,428.86z"/>
			<polygon style="fill:#FED555;" points="108.232,420.685 116.03,420.299 120.329,420.086 119.83,410.01 119.672,406.833 
				115.986,332.404 115.84,329.452 111.542,329.664 103.743,330.051 98.775,330.297 98.922,333.249 102.608,407.678 
				102.765,410.855 103.264,420.931 			"/>
			<g>
				<polygon style="fill:#F6B94E;" points="108.232,420.685 107.733,410.609 107.576,407.432 103.89,333.003 98.922,333.249 
					102.608,407.678 102.765,410.855 103.264,420.931 				"/>
				<polygon style="fill:#F6B94E;" points="115.531,410.223 116.03,420.299 120.329,420.086 119.83,410.01 119.672,406.833 
					115.986,332.404 111.688,332.617 115.374,407.046 				"/>
			</g>
			<path style="fill:#E64640;" d="M115.988,332.404l-0.408-8.205c-0.127-2.563-2.089-4.595-4.551-4.9
				c-0.295-0.036-0.595-0.053-0.902-0.038l-6.673,0.331c-0.077,0.004-0.151,0.016-0.227,0.023c-2.757,0.257-4.85,2.638-4.711,5.43
				l0.408,8.205L115.988,332.404z"/>
			<path style="fill:#CC3E39;" d="M110.826,319.278c-0.002,0.001-0.002,0.002-0.004,0.003l0,0c0.197,3.959-2.853,7.328-6.812,7.524
				l-5.393,0.267l0.307,6.177l17.064-0.845l-0.408-8.204C115.449,321.566,113.382,319.493,110.826,319.278z"/>
			
				<rect x="98.843" y="329.985" transform="matrix(0.9988 -0.0497 0.0497 0.9988 -16.3482 5.7504)" style="fill:#6F88B0;" width="17.085" height="2.843"/>
			<path style="fill:#245C73;" d="M111.978,428.86c-1.033,0.051-2.02,0.257-2.946,0.586l3.461,5.11l2.866-5.292
				C114.288,428.953,113.153,428.802,111.978,428.86z"/>
			<path style="fill:#E66E6A;" d="M104.613,323.488l-2.514,0.154c-0.642,0.039-1.199-0.454-1.238-1.096l0,0
				c-0.039-0.642,0.454-1.199,1.096-1.238l2.514-0.154c0.642-0.039,1.199,0.454,1.238,1.096l0,0
				C105.748,322.892,105.255,323.449,104.613,323.488z"/>
		</g>
		<g>
			<path style="fill:#1E2A5C;" d="M166.105,374.827l-0.593-0.073c-4.814-0.593-8.267-5.018-7.674-9.832l7.93-64.342
				c0.593-4.814,5.018-8.267,9.831-7.674l0.593,0.073c4.814,0.593,8.267,5.018,7.674,9.832l-7.93,64.342
				C175.343,371.967,170.919,375.42,166.105,374.827z"/>
			<path style="fill:#1E2A5C;" d="M160.166,426.746l-1.5-0.185c-4.564-0.563-7.839-4.758-7.276-9.322l7.023-56.983
				c0.563-4.564,4.757-7.839,9.322-7.276l1.5,0.185c4.564,0.563,7.839,4.757,7.276,9.322l-7.023,56.983
				C168.926,424.035,164.731,427.309,160.166,426.746z"/>
			<path style="fill:#1E2A5C;" d="M167.366,318.402h-14.559c-8.942,0-16.258-7.316-16.258-16.258v0
				c0-8.942,7.316-16.258,16.258-16.258h14.559c8.942,0,16.258,7.316,16.258,16.258v0
				C183.625,311.086,176.308,318.402,167.366,318.402z"/>
			<path style="fill:#263573;" d="M146.096,374.904h-0.86c-4.778,0-8.688-3.909-8.688-8.688v-62.65c0-4.778,3.909-8.687,8.688-8.687
				h0.86c4.778,0,8.687,3.909,8.687,8.687v62.65C154.784,370.995,150.874,374.904,146.096,374.904z"/>
			<path style="fill:#263573;" d="M200.183,404.527l-0.73,1.039c-2.68,3.819-7.997,4.751-11.816,2.071l-47.477-33.319
				c-3.819-2.68-4.751-7.997-2.071-11.816l0.729-1.04c2.68-3.819,7.997-4.751,11.816-2.071l47.477,33.319
				C201.931,395.391,202.863,400.709,200.183,404.527z"/>
			<path style="fill:#263573;" d="M204.652,265.648L204.652,265.648c2.519-3.619,1.619-8.641-2-11.161l-30.087-38.841
				c-3.619-2.519-8.642-1.619-11.161,2l0,0c-2.519,3.619-1.619,8.642,2,11.161l30.087,38.841
				C197.111,270.167,202.133,269.267,204.652,265.648z"/>
			<path style="fill:#263573;" d="M184.402,295.82L184.402,295.82c4.087,1.655,8.786-0.335,10.44-4.422l10.615-26.647
				c1.655-4.087-0.335-8.786-4.423-10.44v0c-4.087-1.655-8.785,0.335-10.44,4.423l-10.615,26.647
				C178.324,289.467,180.315,294.165,184.402,295.82z"/>
			<path style="fill:#DDE0E9;" d="M175.487,302.57l-29.773,6.009c-4.138,0.835-8.207-1.867-9.042-6.005l-20.807-70.767
				c-0.835-4.138,1.867-8.207,6.005-9.042l42.313-8.539c4.138-0.835,8.207,1.867,9.042,6.005l8.268,73.298
				C182.327,297.667,179.625,301.735,175.487,302.57z"/>
			<path style="fill:#FFC4A6;" d="M188.101,303.401l-0.152,0.047c-3.397,1.041-7.029-0.886-8.07-4.283l-1.614-5.264
				c-1.042-3.397,0.886-7.029,4.283-8.07l0.152-0.046c3.397-1.041,7.029,0.886,8.07,4.283l1.614,5.264
				C193.426,298.728,191.498,302.36,188.101,303.401z"/>
			<path style="fill:#20274D;" d="M135.288,214.217L135.288,214.217c-12.395,0-22.535-10.141-22.535-22.535v-16.003
				c0-12.395,10.141-22.535,22.535-22.535l0,0c12.395,0,22.535,10.141,22.535,22.535v16.003
				C157.823,204.076,147.682,214.217,135.288,214.217z"/>
			<path style="fill:#324699;" d="M159.975,214.217c0,0,14.299-1.761,14.532,4.829c0.233,6.59,7.383,50.097,9.995,78.512v27.965
				c0,0-6.75,7.12-15.895,0c0,0,2.381-61.605,0.973-76.411C169.581,249.112,160.269,226.424,159.975,214.217z"/>
			<path style="fill:#2D3F8A;" d="M174.507,219.046c-0.084-2.368-1.986-3.654-4.385-4.335c1.471,12.694,7.347,49.717,9.662,74.895
				v27.965c0,0-4.434,4.675-10.983,2.658c-0.117,3.318-0.193,5.294-0.193,5.294c9.145,7.12,15.895,0,15.895,0v-27.965
				C181.89,269.143,174.74,225.636,174.507,219.046z"/>
			<path style="fill:#263573;" d="M157.107,216.077c0,0,12.793,36.301,12.473,65.694c0,0,4.473-10.081,3.729-38.103L165.389,233
				l2.131-11.54l-5.058-7.919C162.462,213.541,154.316,212.655,157.107,216.077z"/>
			<path style="fill:#E64640;" d="M141.965,226.138c0,0,4.123,5.991,7.082,5.991c2.959,0,5.737-1.247,5.737-1.247
				s-0.325-6.428,0-6.917c0.325-0.49-4.328-2.653-6.819-0.755C145.474,225.107,141.965,226.138,141.965,226.138z"/>
			<path style="fill:#FAB5A6;" d="M141.965,226.138h-1.475c-3.939,0-7.161-3.223-7.161-7.161v-9.805
				c0-3.939,3.223-7.161,7.161-7.161h1.475c3.939,0,7.161,3.223,7.161,7.161v9.805C149.126,222.915,145.903,226.138,141.965,226.138
				z"/>
			<polygon style="fill:#BBC1D2;" points="148.678,217.483 147.965,223.209 156.545,227.82 157.107,216.077 149.126,210.573 			"/>
			<path style="fill:#FFD1BA;" d="M148.678,217.483L148.678,217.483c-14.43,0-26.237-11.806-26.237-26.237v-7.403
				c0-14.43,11.807-26.237,26.237-26.237h0c14.43,0,26.237,11.807,26.237,26.237v7.403
				C174.915,205.676,163.109,217.483,148.678,217.483z"/>
			<path style="fill:#272F5D;" d="M171.704,177.311H139.86c-7.814,0-14.207-6.393-14.207-14.207l0,0
				c0-7.814,6.393-14.207,14.207-14.207h31.843c7.814,0,14.207,6.393,14.207,14.207l0,0
				C185.911,170.918,179.518,177.311,171.704,177.311z"/>
			<path style="fill:#20274D;" d="M179.379,168.166h-31.844c-7.814,0-14.207-6.393-14.207-14.207l0,0
				c0-1.281,0.175-2.523,0.497-3.706c-4.818,2.28-8.172,7.192-8.172,12.85c0,7.814,6.393,14.207,14.207,14.207h31.843
				c6.533,0,12.07-4.47,13.71-10.501C183.58,167.678,181.534,168.166,179.379,168.166z"/>
			<path style="fill:#20274D;" d="M125.218,208.338L125.218,208.338c-3.024,0-5.498-2.474-5.498-5.498v-30.265
				c0-3.024,2.474-5.498,5.498-5.498l0,0c3.024,0,5.498,2.474,5.498,5.498v30.265C130.715,205.864,128.242,208.338,125.218,208.338z
				"/>
			<path style="fill:#324699;" d="M133.328,217.483l-13.608,6.065l2.034,28.289c0,0,5.779,53.667,4.434,73.046
				c0,0,18.009,6.481,29.593,0c0,0,1.447-22.199-1.232-37.182C151.872,272.718,140.289,220.395,133.328,217.483z"/>
			<path style="fill:#2D3F8A;" d="M154.55,287.701c-2.678-14.983-14.262-67.307-21.222-70.218l-13.608,6.065l2.034,28.289
				c0,0,0.024,0.226,0.069,0.646c6.453,0.124,12.496,4.221,14.666,10.793c5.765,17.459,11.635,44.608,13.444,54.727
				c0.491,2.745,0.842,5.732,1.09,8.781c1.658-0.447,3.263-1.064,4.76-1.901C155.782,324.883,157.229,302.685,154.55,287.701z"/>
			<circle style="fill:#FFD1BA;" cx="131.369" cy="187.926" r="8.056"/>
			<circle style="fill:#FEA48C;" cx="131.369" cy="187.926" r="5.18"/>
			<path style="fill:#20274D;" d="M136.561,194.621h-1.349c-2.114,0-3.843-1.73-3.843-3.843V176.8c0-2.114,1.729-3.843,3.843-3.843
				h1.349c2.114,0,3.843,1.73,3.843,3.843v13.978C140.405,192.891,138.675,194.621,136.561,194.621z"/>
			<path style="fill:#20274D;" d="M142.772,179.87h-22.699c-2.769,0-5.035-2.266-5.035-5.035l0,0c0-2.769,2.266-5.035,5.035-5.035
				h22.699c2.769,0,5.035,2.266,5.035,5.035l0,0C147.807,177.604,145.542,179.87,142.772,179.87z"/>
			<path style="fill:#FEA48C;" d="M165.389,198.867L165.389,198.867c-2.305,0-4.191-1.886-4.191-4.191v-5.988
				c0-2.305,1.886-4.191,4.191-4.191l0,0c2.305,0,4.191,1.886,4.191,4.191v5.988C169.581,196.981,167.695,198.867,165.389,198.867z"
				/>
			<path style="fill:#272F5D;" d="M157.823,187.545c0,1.127-0.914,2.041-2.041,2.041c-1.127,0-2.041-0.914-2.041-2.041
				c0-1.127,0.914-2.041,2.041-2.041C156.909,185.503,157.823,186.417,157.823,187.545z"/>
			<path style="fill:#272F5D;" d="M175.351,187.545c0,1.127-0.914,2.041-2.041,2.041c-1.127,0-2.041-0.914-2.041-2.041
				c0-1.127,0.914-2.041,2.041-2.041C174.437,185.503,175.351,186.417,175.351,187.545z"/>
			<g>
				<path style="fill:#8C0600;" d="M162.462,202.01h-15.823c0.366,1.631,1.222,3.077,2.408,4.173c0.082-1.409,2.512-2.54,5.504-2.54
					c2.992,0,5.421,1.131,5.504,2.54C161.24,205.087,162.096,203.642,162.462,202.01z"/>
				<path style="fill:#FFF6F1;" d="M162.661,200.228H146.44c0,0.613,0.07,1.209,0.199,1.783h15.823
					C162.591,201.436,162.661,200.84,162.661,200.228z"/>
				<path style="fill:#FF5F58;" d="M154.55,203.643c-2.992,0-5.422,1.131-5.504,2.54c0.026,0.024,0.052,0.049,0.079,0.073h10.849
					c0.027-0.024,0.053-0.049,0.079-0.073C159.972,204.774,157.542,203.643,154.55,203.643z"/>
				<path style="fill:#FFF6F1;" d="M159.975,206.256h-10.849c1.437,1.294,3.339,2.082,5.425,2.082S158.538,207.55,159.975,206.256z"
					/>
			</g>
			<path style="fill:none;stroke:#272F5D;stroke-width:1.8805;stroke-linecap:round;stroke-miterlimit:10;" d="M149.993,182.848
				c2.138-2.138,5.603-2.138,7.741,0"/>
			<path style="fill:none;stroke:#272F5D;stroke-width:1.8805;stroke-linecap:round;stroke-miterlimit:10;" d="M167.52,182.848
				c2.137-2.138,5.603-2.138,7.741,0"/>
			<path style="fill:#263573;" d="M105.393,281.149L105.393,281.149c-4.232-1.238-6.682-5.714-5.444-9.946l12.271-41.954
				c1.238-4.232,5.714-6.682,9.946-5.444l0,0c4.232,1.238,6.682,5.714,5.444,9.946l-12.272,41.954
				C114.1,279.937,109.625,282.387,105.393,281.149z"/>
			<path style="fill:#263573;" d="M111.771,325.295L111.771,325.295c-4.395,0.355-8.282-2.951-8.637-7.346l-3.52-43.57
				c-0.355-4.395,2.951-8.282,7.346-8.637h0c4.395-0.355,8.282,2.951,8.637,7.346l3.52,43.57
				C119.472,321.053,116.167,324.94,111.771,325.295z"/>
			<path style="fill:#FFD1BA;" d="M113.222,325.523h-11.649c-3.413,0-6.205-2.792-6.205-6.205l0,0c0-3.413,2.793-6.205,6.205-6.205
				h11.649c3.413,0,6.205,2.792,6.205,6.205l0,0C119.427,322.73,116.635,325.523,113.222,325.523z"/>
			<polygon style="fill:#BBC1D2;" points="129.103,221.305 133.328,214.126 147.965,223.209 142.188,230.881 			"/>
			<path style="fill:#E64640;" d="M147.965,231.898c0,0,1.102,37.463,3.551,39.423c2.45,1.96,10.625,5.879,10.946,5.879
				c0.321,0,3.424-5.237,3.587-9.069s-9.839-34.848-12.186-36.895C151.516,229.189,147.932,230.869,147.965,231.898z"/>
			<path style="fill:#263573;" d="M125.653,220.68l3.45,8.999l10.322,9.418l-0.891,24.168l16.017,24.437
				c0,0-9.846-43.601-15.126-58.843C134.146,213.618,125.653,220.68,125.653,220.68z"/>
			<circle style="fill:#263573;" cx="151.407" cy="299.191" r="1.633"/>
			<circle style="fill:#263573;" cx="151.407" cy="311.479" r="1.633"/>
			<path style="fill:#263573;" d="M143.779,302.144h-14.016c-0.363,0-0.66-0.297-0.66-0.66l0,0c0-0.363,0.297-0.66,0.66-0.66h14.016
				c0.363,0,0.66,0.297,0.66,0.66l0,0C144.439,301.847,144.143,302.144,143.779,302.144z"/>
			<path style="fill:#476490;" d="M175.93,432.443h-27.544v-7.784c0-4.221,3.454-7.675,7.675-7.675h12.194
				c4.221,0,7.675,3.454,7.675,7.675V432.443z"/>
			<path style="fill:#405A82;" d="M173.358,418.95c0.215,0.8,0.341,1.636,0.341,2.502l0,0c0,1.801-1.46,3.262-3.262,3.262h-16.56
				c-1.801,0-3.262-1.46-3.262-3.262l0,0c0-0.866,0.126-1.702,0.341-2.502c-1.573,1.408-2.572,3.445-2.572,5.709v7.784h27.544
				v-7.784C175.93,422.395,174.931,420.358,173.358,418.95z"/>
			<path style="fill:#354B6C;" d="M175.853,434.621h-26.781c-1.078,0-1.96-0.882-1.96-1.96l0,0c0-1.078,0.882-1.96,1.96-1.96h26.781
				c1.078,0,1.96,0.882,1.96,1.96l0,0C177.812,433.739,176.93,434.621,175.853,434.621z"/>
			<path style="fill:#6F88B0;" d="M168.885,421.23h-4.899c-0.838,0-1.524-0.686-1.524-1.524l0,0c0-0.838,0.686-1.524,1.524-1.524
				h4.899c0.838,0,1.524,0.686,1.524,1.524l0,0C170.409,420.544,169.723,421.23,168.885,421.23z"/>
			<g>
				<path style="fill:#476490;" d="M201.176,425.221l-17.352,8.087l-3.827-8.212c-1.487-3.19-0.093-7.016,3.097-8.503l5.753-2.681
					c3.19-1.487,7.016-0.093,8.503,3.097L201.176,425.221z"/>
				<path style="fill:#405A82;" d="M193.855,413.746c0.474,0.662,0.906,1.383,1.272,2.168l0,0c0.761,1.633,0.458,3.385-0.677,3.914
					l-10.432,4.862c-1.135,0.529-2.672-0.366-3.432-1.999v0c-0.366-0.785-0.64-1.579-0.842-2.368
					c-0.396,1.738-0.165,3.878,0.791,5.93l3.288,7.055l17.352-8.087l-3.288-7.055C196.931,416.113,195.441,414.561,193.855,413.746z
					"/>
				<path style="fill:#354B6C;" d="M201.8,427.332l-16.379,7.634c-0.814,0.38-1.791,0.024-2.171-0.791l-0.275-0.591
					c-0.38-0.814-0.024-1.791,0.791-2.171l16.379-7.634c0.814-0.38,1.791-0.024,2.171,0.791l0.275,0.591
					C202.971,425.975,202.615,426.952,201.8,427.332z"/>
				<path style="fill:#476490;" d="M209.69,400.601l-9.426,25.881l-7.314-2.664c-3.966-1.445-6.03-5.872-4.585-9.838l4.173-11.458
					c1.444-3.966,5.872-6.03,9.838-4.585L209.69,400.601z"/>
				<path style="fill:#405A82;" d="M196.131,398.401c0.826,0.071,1.654,0.239,2.468,0.535l0,0c1.693,0.617,2.565,2.488,1.949,4.181
					l-5.667,15.56c-0.616,1.693-2.488,2.565-4.181,1.949h0c-0.814-0.296-1.556-0.701-2.234-1.177c0.785,1.96,2.357,3.596,4.484,4.37
					l7.314,2.664l9.426-25.881l-7.314-2.664C200.248,397.163,197.992,397.405,196.131,398.401z"/>
				<path style="fill:#354B6C;" d="M211.709,401.419l-9.165,25.164c-0.369,1.013-1.499,1.539-2.512,1.171l0,0
					c-1.013-0.369-1.54-1.499-1.171-2.512l9.165-25.164c0.369-1.013,1.499-1.54,2.512-1.171l0,0
					C211.551,399.276,212.078,400.406,211.709,401.419z"/>
				<path style="fill:#6F88B0;" d="M196.742,403.384l-1.676,4.603c-0.287,0.788-1.166,1.197-1.954,0.911l0,0
					c-0.788-0.287-1.197-1.166-0.911-1.954l1.676-4.603c0.287-0.788,1.166-1.198,1.954-0.911l0,0
					C196.62,401.717,197.029,402.596,196.742,403.384z"/>
			</g>
			<path style="fill:#313B75;" d="M173.779,159.787h-14.478c-1.527,0-2.776-1.249-2.776-2.776l0,0c0-1.527,1.249-2.776,2.776-2.776
				h14.478c1.527,0,2.776,1.249,2.776,2.776l0,0C176.555,158.538,175.306,159.787,173.779,159.787z"/>
			<path style="fill:#272F5D;" d="M137.79,191.682L137.79,191.682c-1.376,0-2.502-1.126-2.502-2.502v-10.128
				c0-1.376,1.126-2.502,2.502-2.502l0,0c1.376,0,2.502,1.126,2.502,2.502v10.128C140.292,190.556,139.166,191.682,137.79,191.682z"
				/>
			<path style="fill:#FFD1BA;" d="M177.991,294.876l-0.434-0.362c-0.748-0.622-0.85-1.743-0.228-2.491l4.442-5.338
				c0.622-0.748,1.743-0.85,2.491-0.228l0.434,0.362c0.748,0.622,0.85,1.743,0.228,2.491l-4.442,5.338
				C179.86,295.395,178.739,295.498,177.991,294.876z"/>
			<path style="fill:#FFD1BA;" d="M179.461,299.492l-0.434-0.362c-0.748-0.622-0.85-1.743-0.228-2.491l4.442-5.338
				c0.622-0.748,1.743-0.85,2.491-0.228l0.434,0.362c0.748,0.622,0.85,1.743,0.228,2.491l-4.442,5.338
				C181.33,300.012,180.209,300.114,179.461,299.492z"/>
			<path style="fill:#FFD1BA;" d="M180.734,304.042l-0.434-0.362c-0.748-0.622-0.85-1.743-0.228-2.491l4.442-5.338
				c0.622-0.748,1.743-0.85,2.491-0.228l0.434,0.362c0.748,0.622,0.85,1.743,0.228,2.491l-4.442,5.338
				C182.603,304.561,181.482,304.664,180.734,304.042z"/>
			<path style="fill:#FFD1BA;" d="M182.196,308.658l-0.434-0.362c-0.748-0.622-0.85-1.743-0.228-2.491l4.442-5.338
				c0.622-0.748,1.743-0.85,2.491-0.228l0.434,0.362c0.748,0.622,0.85,1.743,0.228,2.491l-4.442,5.338
				C184.065,309.177,182.944,309.28,182.196,308.658z"/>
			<path style="fill:#FFD1BA;" d="M92.259,329.501L92.259,329.501c-1.747-1.216-2.182-3.64-0.966-5.388l3.814-5.48
				c1.216-1.747,3.64-2.182,5.388-0.966l0,0c1.747,1.216,2.182,3.641,0.966,5.388l-3.814,5.48
				C96.431,330.283,94.006,330.717,92.259,329.501z"/>
			<path style="fill:#FFD1BA;" d="M96.506,336.682L96.506,336.682c-2.102,0.336-4.097-1.109-4.433-3.211l-1.054-6.593
				c-0.336-2.102,1.109-4.097,3.211-4.433l0,0c2.102-0.336,4.097,1.109,4.433,3.211l1.054,6.593
				C100.053,334.351,98.608,336.346,96.506,336.682z"/>
			<path style="fill:#FFD1BA;" d="M107.57,330.925L107.57,330.925c-1.747-1.216-2.182-3.64-0.966-5.388l3.814-5.48
				c1.216-1.747,3.64-2.182,5.388-0.966l0,0c1.747,1.216,2.182,3.641,0.966,5.388l-3.814,5.48
				C111.741,331.707,109.317,332.141,107.57,330.925z"/>
		</g>
	</g>
	<path style="fill:#E3E9FF;" d="M122.877,63.208c0,1.408-1.141,2.549-2.549,2.549s-2.549-1.141-2.549-2.549
		c0-1.408,1.141-2.549,2.549-2.549S122.877,61.8,122.877,63.208z"/>
	<path style="fill:#E3E9FF;" d="M433.145,439.34H66.855c-1.57,0-2.855-1.285-2.855-2.855v-0.322c0-1.57,1.285-2.855,2.855-2.855
		h366.29c1.57,0,2.855,1.285,2.855,2.855v0.322C436,438.056,434.715,439.34,433.145,439.34z"/>
</g>
<g id="DESIGNED_BY_FREEPIK">
	<g>
		<g id="XMLID_25_">
			<g id="XMLID_44_">
				<path id="XMLID_52_" style="fill:#ACB7C6;" d="M260.104,465.465c-0.432,0.443-0.803,0.931-1.109,1.453l-0.465-0.241
					c-0.067-0.298-0.349-0.503-0.659-0.466c-0.331,0.039-0.568,0.339-0.529,0.67c0.039,0.331,0.339,0.568,0.67,0.529
					c0.065-0.008,0.127-0.026,0.183-0.052l0.451,0.234c-0.251,0.554-0.433,1.139-0.539,1.744l0.746,0.132
					c0.23-1.306,0.85-2.507,1.792-3.473L260.104,465.465z"/>
				<path id="XMLID_51_" style="fill:#ACB7C6;" d="M265.592,463.163c-0.171,0-0.341,0.006-0.51,0.017l-0.074-0.626
					c0.188-0.149,0.296-0.389,0.266-0.645c-0.046-0.393-0.402-0.674-0.795-0.628c-0.393,0.046-0.674,0.402-0.628,0.795
					c0.03,0.254,0.19,0.461,0.405,0.564l0.074,0.624c-0.714,0.116-1.403,0.332-2.06,0.646l0.327,0.684
					c0.934-0.447,1.942-0.673,2.995-0.673c0.496,0,0.993,0.053,1.475,0.158l0.16-0.741
					C266.692,463.222,266.142,463.163,265.592,463.163z"/>
				<path id="XMLID_50_" style="fill:#ACB7C6;" d="M272.194,465.711c0.331-0.04,0.566-0.341,0.526-0.672
					c-0.04-0.331-0.341-0.566-0.672-0.526c-0.309,0.038-0.535,0.304-0.53,0.609l-0.416,0.363c-0.418-0.43-0.89-0.813-1.408-1.139
					l-0.404,0.641c1.134,0.715,2.02,1.726,2.563,2.925l0.69-0.313c-0.251-0.554-0.567-1.072-0.942-1.545l0.402-0.351
					C272.065,465.716,272.129,465.719,272.194,465.711z"/>
				<path id="XMLID_49_" style="fill:#ACB7C6;" d="M265.044,473.372c-0.386,0.023-0.775,0.035-1.157,0.035
					c-0.88,0-1.733-0.061-2.478-0.179c-0.39-0.062-0.846-0.155-1.27-0.292c1.046,1.861,3.069,3.125,5.388,3.125
					c2.855,0,5.262-1.916,5.95-4.504c-0.682,0.449-1.505,0.825-2.459,1.123C267.839,473.047,266.464,473.286,265.044,473.372z"/>
				<path id="XMLID_45_" style="fill:#ACB7C6;" d="M265.592,464.68c-3.352,0-6.08,2.666-6.08,5.943c0,0.426,0.046,0.849,0.137,1.261
					c0.673,0.483,2.706,0.89,5.348,0.731c2.879-0.173,5.297-0.957,6.672-2.159c-0.005-0.195-0.021-0.39-0.045-0.582
					C271.244,466.913,268.65,464.68,265.592,464.68z M263.432,471.194c-1.02,0-1.85-0.83-1.85-1.85c0-1.02,0.83-1.85,1.85-1.85
					c1.02,0,1.85,0.83,1.85,1.85C265.282,470.365,264.452,471.194,263.432,471.194z M268.17,470.286c-0.75,0-1.36-0.61-1.36-1.36
					s0.61-1.361,1.36-1.361c0.75,0,1.361,0.61,1.361,1.361S268.92,470.286,268.17,470.286z"/>
			</g>
			<path id="XMLID_42_" style="fill:#ACB7C6;" d="M281.595,466.547c-0.294-0.116-0.805-0.309-1.382-0.237
				c-0.551,0.069-0.844,0.341-0.844,1.007v0.866h2.228v1.717h-2.228v5.455h-1.932v-5.455h-1.34v-1.717h1.34v-0.888
				c0-1.68,0.896-2.783,2.568-2.783c0.642,0,1.157,0.122,1.59,0.308L281.595,466.547z"/>
			<path id="XMLID_40_" style="fill:#ACB7C6;" d="M286.298,469.879c-0.177-0.03-0.358-0.046-0.526-0.046
				c-0.896,0-1.51,0.548-1.51,1.614v3.908h-1.932v-7.172h1.873v0.785c0.451-0.673,1.14-0.977,2.021-0.977
				c0.414,0,0.848,0.128,1.094,0.337L286.298,469.879z"/>
			<path id="XMLID_37_" style="fill:#ACB7C6;" d="M293.965,471.757c0,0.222-0.015,0.489-0.037,0.651h-5.085
				c0.207,1.036,0.933,1.488,1.843,1.488c0.622,0,1.295-0.252,1.813-0.688l1.133,1.243c-0.814,0.748-1.85,1.088-3.057,1.088
				c-2.198,0-3.723-1.495-3.723-3.753c0-2.258,1.48-3.797,3.626-3.797C292.544,467.99,293.958,469.522,293.965,471.757z
				 M288.851,471.091h3.175c-0.177-0.918-0.733-1.436-1.561-1.436C289.554,469.655,289.021,470.203,288.851,471.091z"/>
			<path id="XMLID_34_" style="fill:#ACB7C6;" d="M301.618,471.757c0,0.222-0.015,0.489-0.037,0.651h-5.085
				c0.207,1.036,0.933,1.488,1.843,1.488c0.622,0,1.295-0.252,1.813-0.688l1.132,1.243c-0.814,0.748-1.85,1.088-3.057,1.088
				c-2.198,0-3.723-1.495-3.723-3.753c0-2.258,1.48-3.797,3.626-3.797C300.197,467.99,301.611,469.522,301.618,471.757z
				 M296.504,471.091h3.175c-0.178-0.918-0.733-1.436-1.562-1.436C297.207,469.655,296.674,470.203,296.504,471.091z"/>
			<path id="XMLID_31_" style="fill:#ACB7C6;" d="M309.964,471.764c0,2.154-1.495,3.775-3.471,3.775
				c-0.962,0-1.643-0.378-2.109-0.933v3.708h-1.924v-10.133h1.887v0.792c0.466-0.585,1.155-0.984,2.139-0.984
				C308.469,467.99,309.964,469.61,309.964,471.764z M304.287,471.764c0,1.132,0.748,1.976,1.843,1.976
				c1.14,0,1.85-0.881,1.85-1.976c0-1.095-0.71-1.976-1.85-1.976C305.035,469.788,304.287,470.632,304.287,471.764z"/>
			<path id="XMLID_28_" style="fill:#ACB7C6;" d="M313.068,465.836c0,0.696-0.54,1.229-1.236,1.229
				c-0.696,0-1.229-0.533-1.229-1.229c0-0.696,0.533-1.243,1.229-1.243C312.527,464.592,313.068,465.14,313.068,465.836z
				 M312.809,475.354h-1.932v-7.172h1.932V475.354z"/>
			<path id="XMLID_26_" style="fill:#ACB7C6;" d="M316.032,470.736l2.701-2.554h2.368l-3.479,3.375l3.501,3.797h-2.376l-2.716-2.901
				v2.901h-1.932v-10.658h1.932V470.736z"/>
		</g>
		<g>
			<path style="fill:#ACB7C6;" d="M184.412,475.289v-1.055c-0.527,0.718-1.391,1.23-2.387,1.23c-1.846,0-3.149-1.406-3.149-3.706
				c0-2.256,1.289-3.721,3.149-3.721c0.952,0,1.816,0.469,2.387,1.245v-3.765h1.099v9.77H184.412z M184.412,473.37v-3.208
				c-0.395-0.615-1.245-1.143-2.124-1.143c-1.421,0-2.27,1.172-2.27,2.739c0,1.567,0.85,2.724,2.27,2.724
				C183.167,474.483,184.017,473.986,184.412,473.37z"/>
			<path style="fill:#ACB7C6;" d="M186.932,471.744c0-2.051,1.465-3.706,3.486-3.706c2.139,0,3.398,1.67,3.398,3.794v0.279h-5.727
				c0.088,1.333,1.025,2.446,2.549,2.446c0.805,0,1.626-0.322,2.182-0.894l0.527,0.718c-0.703,0.703-1.655,1.084-2.812,1.084
				C188.44,475.465,186.932,473.956,186.932,471.744z M190.403,468.947c-1.509,0-2.256,1.274-2.314,2.358h4.643
				C192.718,470.25,192.014,468.947,190.403,468.947z"/>
			<path style="fill:#ACB7C6;" d="M194.607,474.351l0.571-0.791c0.469,0.542,1.362,1.011,2.329,1.011c1.084,0,1.67-0.513,1.67-1.216
				c0-1.714-4.38-0.659-4.38-3.281c0-1.098,0.952-2.036,2.636-2.036c1.201,0,2.051,0.454,2.622,1.026l-0.513,0.762
				c-0.424-0.513-1.201-0.894-2.109-0.894c-0.967,0-1.567,0.483-1.567,1.113c0,1.552,4.38,0.527,4.38,3.281
				c0,1.187-0.952,2.138-2.783,2.138C196.306,475.465,195.325,475.113,194.607,474.351z"/>
			<path style="fill:#ACB7C6;" d="M201.477,466.471c0-0.41,0.337-0.747,0.732-0.747c0.41,0,0.747,0.337,0.747,0.747
				c0,0.41-0.337,0.732-0.747,0.732C201.814,467.203,201.477,466.881,201.477,466.471z M201.667,475.289v-7.075h1.099v7.075H201.667
				z"/>
			<path style="fill:#ACB7C6;" d="M204.582,477.105l0.556-0.82c0.586,0.703,1.289,0.967,2.3,0.967c1.172,0,2.27-0.571,2.27-2.124
				v-1.011c-0.513,0.718-1.377,1.26-2.373,1.26c-1.845,0-3.149-1.377-3.149-3.662c0-2.27,1.289-3.677,3.149-3.677
				c0.952,0,1.802,0.469,2.373,1.245v-1.069h1.099v6.87c0,2.344-1.64,3.076-3.369,3.076
				C206.237,478.16,205.417,477.926,204.582,477.105z M209.709,473.253v-3.091c-0.381-0.615-1.23-1.143-2.109-1.143
				c-1.421,0-2.27,1.128-2.27,2.695c0,1.553,0.849,2.695,2.27,2.695C208.478,474.41,209.328,473.868,209.709,473.253z"/>
			<path style="fill:#ACB7C6;" d="M217.413,475.289v-4.629c0-1.245-0.63-1.641-1.582-1.641c-0.865,0-1.685,0.527-2.095,1.099v5.17
				h-1.099v-7.075h1.099v1.025c0.498-0.586,1.464-1.201,2.519-1.201c1.48,0,2.256,0.747,2.256,2.285v4.966H217.413z"/>
			<path style="fill:#ACB7C6;" d="M219.932,471.744c0-2.051,1.465-3.706,3.486-3.706c2.138,0,3.398,1.67,3.398,3.794v0.279h-5.727
				c0.088,1.333,1.025,2.446,2.549,2.446c0.806,0,1.626-0.322,2.183-0.894l0.527,0.718c-0.703,0.703-1.655,1.084-2.812,1.084
				C221.441,475.465,219.932,473.956,219.932,471.744z M223.404,468.947c-1.509,0-2.256,1.274-2.314,2.358h4.643
				C225.718,470.25,225.015,468.947,223.404,468.947z"/>
			<path style="fill:#ACB7C6;" d="M233.35,475.289v-1.055c-0.527,0.718-1.392,1.23-2.388,1.23c-1.846,0-3.149-1.406-3.149-3.706
				c0-2.256,1.289-3.721,3.149-3.721c0.952,0,1.817,0.469,2.388,1.245v-3.765h1.098v9.77H233.35z M233.35,473.37v-3.208
				c-0.396-0.615-1.245-1.143-2.124-1.143c-1.421,0-2.27,1.172-2.27,2.739c0,1.567,0.85,2.724,2.27,2.724
				C232.105,474.483,232.954,473.986,233.35,473.37z"/>
			<path style="fill:#ACB7C6;" d="M239.692,475.289v-9.77h1.098v3.765c0.572-0.776,1.421-1.245,2.388-1.245
				c1.845,0,3.149,1.465,3.149,3.721c0,2.299-1.304,3.706-3.149,3.706c-0.996,0-1.86-0.513-2.388-1.23v1.055H239.692z
				 M242.9,474.483c1.436,0,2.286-1.157,2.286-2.724c0-1.568-0.85-2.739-2.286-2.739c-0.864,0-1.728,0.527-2.109,1.143v3.208
				C241.171,473.986,242.036,474.483,242.9,474.483z"/>
			<path style="fill:#ACB7C6;" d="M247.528,477.061c0.161,0.073,0.425,0.117,0.601,0.117c0.483,0,0.806-0.161,1.055-0.747
				l0.469-1.069l-2.959-7.148h1.187l2.358,5.8l2.344-5.8h1.201l-3.545,8.51c-0.425,1.025-1.143,1.421-2.08,1.435
				c-0.234,0-0.601-0.044-0.805-0.103L247.528,477.061z"/>
		</g>
	</g>
</g>
</svg>
